<svg width="16" height="16" viewBox="0 0 16 16" fill="none" xmlns="http://www.w3.org/2000/svg">
<path d="M1.77778 2.92857L6.52844 7.21114L6.53 7.213C7.05733 7.6745 7.321 7.90571 7.61033 7.99486C7.8659 8.07381 8.1341 8.07381 8.38967 7.99486C8.679 7.90571 8.94344 7.6745 9.47233 7.21114C9.47233 7.21114 12.5189 4.41986 14.2222 2.92857M1 12.0286V4.97143C1 3.93143 1 3.41143 1.16956 3.014C1.31889 2.66393 1.55611 2.38071 1.84933 2.20243C2.18222 2 2.61778 2 3.48889 2H12.5111C13.3822 2 13.8178 2 14.1499 2.20243C14.4431 2.38071 14.6811 2.66393 14.8304 3.014C15 3.4105 15 3.9305 15 4.96864V12.0323C15 13.0704 15 13.5886 14.8304 13.986C14.6811 14.3356 14.4429 14.6197 14.1499 14.7976C13.8178 15 13.383 15 12.5134 15H3.48656C2.617 15 2.18144 15 1.84933 14.7976C1.55665 14.6195 1.31869 14.3354 1.16956 13.986C1 13.5886 1 13.0686 1 12.0286Z" stroke="currentColor" stroke-width="1.3" stroke-linecap="round" stroke-linejoin="round"/>
</svg>
