<svg width="16" height="16" viewBox="0 0 16 16" fill="none" xmlns="http://www.w3.org/2000/svg">
<path fill-rule="evenodd" clip-rule="evenodd" d="M2.0603 6.21637C3.69647 9.77949 6.60295 12.6032 10.2107 14.1347L10.2216 14.1393L10.9196 14.45C11.3506 14.6424 11.8348 14.6804 12.2906 14.5577C12.7464 14.4351 13.1461 14.1592 13.4226 13.7764L14.5864 12.1649C14.6206 12.1175 14.6353 12.0587 14.6275 12.0007C14.6197 11.9427 14.5899 11.8899 14.5444 11.8532L12.5127 10.2125C12.4887 10.1932 12.4611 10.1789 12.4315 10.1705C12.4018 10.1621 12.3708 10.1598 12.3402 10.1638C12.3097 10.1677 12.2802 10.1778 12.2537 10.1934C12.2271 10.209 12.204 10.2298 12.1857 10.2546L11.3946 11.3222C11.3014 11.4481 11.1679 11.5383 11.0163 11.5778C10.8647 11.6172 10.7042 11.6034 10.5615 11.5388C7.85905 10.3127 5.69374 8.14614 4.46832 5.44217C4.40374 5.2994 4.39001 5.13879 4.4294 4.9871C4.4688 4.83542 4.55894 4.70183 4.68482 4.60857L5.75089 3.8161C5.77567 3.79778 5.79648 3.77464 5.81208 3.74806C5.82768 3.72148 5.83774 3.69202 5.84167 3.66145C5.8456 3.63089 5.8433 3.59984 5.83492 3.57018C5.82654 3.54052 5.81225 3.51286 5.79292 3.48887L4.15407 1.45605C4.1174 1.41047 4.06465 1.3807 4.0067 1.37287C3.94874 1.36505 3.89 1.37977 3.84257 1.414L2.22291 2.58397C1.83777 2.86194 1.5607 3.26477 1.4388 3.72399C1.3169 4.18322 1.35768 4.67052 1.55421 5.10307L2.0603 6.21637ZM9.66987 15.3942C5.75027 13.7286 2.59281 10.6596 0.815182 6.78764L0.813355 6.78581L0.307269 5.67068C-0.0202989 4.94991 -0.088366 4.13788 0.114632 3.37258C0.31763 2.60727 0.779171 1.93589 1.42084 1.4725L3.0405 0.302531C3.37222 0.0629802 3.78311 -0.0402107 4.18857 0.0141998C4.59404 0.0686103 4.96323 0.276482 5.22014 0.595024L6.8599 2.62876C6.99522 2.79655 7.09524 2.98999 7.15395 3.19744C7.21266 3.40489 7.22885 3.62208 7.20155 3.83595C7.17424 4.04982 7.104 4.25596 6.99506 4.44198C6.88611 4.628 6.74071 4.79006 6.56758 4.91843L5.95552 5.37179C6.99073 7.37905 8.62479 9.01405 10.6309 10.0498L11.0849 9.43744C11.2132 9.26435 11.3751 9.11897 11.5609 9.01005C11.7468 8.90112 11.9527 8.8309 12.1663 8.80358C12.38 8.77626 12.5969 8.79242 12.8042 8.85108C13.0114 8.90974 13.2047 9.0097 13.3723 9.14495L15.4049 10.7856C15.7235 11.0427 15.9314 11.4123 15.9858 11.8182C16.0402 12.2242 15.9369 12.6355 15.6972 12.9675L14.5334 14.5798C14.0727 15.2178 13.4067 15.6776 12.6471 15.8822C11.8876 16.0868 11.0808 16.0235 10.3623 15.7032L9.66987 15.3942Z" fill="currentColor"/>
</svg>
